<?xml version="1.0" encoding="UTF-8"?>
<svg xmlns="http://www.w3.org/2000/svg" xmlns:xlink="http://www.w3.org/1999/xlink" width="74px" height="60px" viewBox="0 0 74 60" version="1.1">
<g id="surface1">
<path style=" stroke:none;fill-rule:nonzero;fill:rgb(18.039216%,29.019608%,56.078431%);fill-opacity:1;" d="M 24.058594 12.5 C 24.058594 5.597656 29.632812 0 36.511719 0 C 43.386719 0 48.960938 5.597656 48.960938 12.5 C 48.960938 19.40625 43.386719 25 36.511719 25 C 29.632812 25 24.058594 19.40625 24.058594 12.5 "/>
<path style=" stroke:none;fill-rule:nonzero;fill:rgb(100%,100%,100%);fill-opacity:1;" d="M 25.109375 12.5 C 25.109375 6.179688 30.214844 1.054688 36.511719 1.054688 C 42.808594 1.054688 47.910156 6.179688 47.910156 12.5 C 47.910156 18.820312 42.808594 23.945312 36.511719 23.945312 C 30.214844 23.945312 25.109375 18.820312 25.109375 12.5 "/>
<path style=" stroke:none;fill-rule:nonzero;fill:rgb(18.039216%,29.019608%,56.078431%);fill-opacity:1;" d="M 25.734375 12.5 C 25.734375 6.523438 30.558594 1.679688 36.511719 1.679688 C 42.464844 1.679688 47.289062 6.523438 47.289062 12.5 C 47.289062 18.476562 42.464844 23.324219 36.511719 23.324219 C 30.558594 23.324219 25.734375 18.476562 25.734375 12.5 "/>
<path style=" stroke:none;fill-rule:evenodd;fill:rgb(94.117647%,29.019608%,21.960784%);fill-opacity:1;" d="M 42.476562 44.671875 C 42.472656 44.75 42.445312 44.851562 42.414062 44.953125 C 42.378906 45.0625 42.335938 45.1875 42.289062 45.3125 C 42.195312 45.570312 42.113281 45.796875 42.113281 45.890625 L 42.113281 46.660156 C 42.113281 46.839844 41.941406 47.074219 41.785156 47.265625 C 41.617188 47.460938 41.429688 47.648438 41.34375 47.734375 L 40.253906 47.757812 C 40.175781 47.6875 40.117188 47.648438 40.054688 47.605469 C 39.988281 47.5625 39.921875 47.523438 39.851562 47.480469 C 39.714844 47.390625 39.570312 47.277344 39.46875 47.09375 C 39.390625 46.953125 39.394531 46.800781 39.421875 46.65625 C 39.449219 46.523438 39.503906 46.382812 39.550781 46.25 C 39.597656 46.121094 39.628906 46.023438 39.625 45.953125 C 39.625 45.902344 39.609375 45.863281 39.53125 45.839844 L 39.484375 45.839844 C 39.460938 45.84375 39.378906 45.84375 39.34375 45.757812 C 39.109375 45.15625 39.078125 44.5 39.105469 43.996094 C 39.132812 43.546875 39.203125 43.214844 39.21875 43.144531 C 39.210938 43.121094 39.210938 43.121094 39.203125 43.117188 L 39.15625 43.09375 C 39.128906 43.074219 39.09375 43.039062 39.09375 42.980469 C 39.09375 42.195312 38.972656 41.953125 38.972656 41.800781 C 38.972656 41.648438 39.019531 41.402344 39.09375 40.371094 C 39.113281 40.089844 39.203125 39.691406 39.289062 39.34375 L 39.40625 38.886719 C 39.4375 38.757812 39.453125 38.679688 39.453125 38.65625 C 39.453125 38.242188 39.371094 37.625 39.121094 37.375 L 39.09375 36.5 C 39.09375 36.464844 39.074219 36.429688 39.023438 36.367188 C 38.996094 36.335938 38.96875 36.304688 38.941406 36.265625 C 38.914062 36.230469 38.882812 36.1875 38.863281 36.132812 C 38.664062 35.65625 38.578125 35.21875 38.871094 34.75 C 38.898438 34.703125 38.929688 34.675781 38.960938 34.648438 C 38.988281 34.628906 39.015625 34.613281 39.042969 34.59375 C 39.085938 34.5625 39.09375 34.550781 39.09375 34.519531 L 39.09375 32.632812 C 39.09375 32.53125 39.035156 32.390625 38.953125 32.199219 C 38.910156 32.109375 38.867188 32.011719 38.832031 31.914062 C 38.796875 31.8125 38.765625 31.707031 38.75 31.605469 C 38.710938 31.34375 38.703125 31.085938 38.664062 30.847656 C 38.625 30.617188 38.554688 30.410156 38.398438 30.230469 C 38.378906 30.210938 38.296875 29.921875 38.257812 29.601562 C 38.21875 29.28125 38.214844 28.867188 38.390625 28.578125 C 38.53125 28.34375 38.652344 28.183594 38.917969 28.054688 C 39.273438 27.878906 39.585938 27.882812 39.941406 28.054688 C 40.253906 28.207031 40.398438 28.402344 40.535156 28.710938 C 40.628906 28.921875 40.625 29.210938 40.605469 29.429688 C 40.582031 29.65625 40.53125 29.867188 40.53125 29.867188 C 40.351562 29.996094 40.007812 30.808594 40.007812 31.21875 C 40.007812 31.257812 40.003906 31.300781 40 31.335938 C 40 31.367188 40 31.390625 40.003906 31.40625 C 40.011719 31.425781 40.019531 31.429688 40.046875 31.4375 L 40.125 31.453125 L 40.125 35.59375 C 40.125 35.832031 40.390625 36.664062 40.640625 36.925781 L 40.703125 36.988281 L 40.644531 37.054688 C 40.59375 37.113281 40.546875 37.25 40.546875 37.386719 C 40.546875 37.675781 40.601562 38.070312 40.761719 38.25 L 40.785156 39.421875 L 40.851562 39.484375 C 40.882812 39.511719 40.914062 39.542969 40.949219 39.570312 C 41.015625 39.625 41.074219 39.648438 41.117188 39.648438 C 41.210938 39.648438 42.644531 36.742188 42.992188 35.449219 C 43.195312 34.679688 43.230469 33.867188 43.390625 33.105469 C 43.992188 32.203125 44.425781 31.242188 44.8125 30.257812 C 45.199219 29.265625 45.539062 28.253906 45.925781 27.28125 C 45.996094 27.171875 46.390625 26.5 46.847656 25.847656 C 47.289062 25.222656 47.84375 24.53125 48.222656 24.53125 C 48.617188 24.53125 48.859375 25.117188 48.859375 25.289062 C 48.859375 26.117188 46.851562 31.445312 46.4375 32.507812 C 45.898438 32.972656 45.5 33.597656 45.175781 34.285156 C 44.847656 34.972656 44.597656 35.710938 44.371094 36.347656 C 43.851562 37.394531 42.835938 40.15625 42.835938 40.386719 L 42.835938 41.148438 C 42.835938 41.273438 42.769531 41.304688 42.710938 41.304688 Z M 42.476562 44.671875 "/>
<path style=" stroke:none;fill-rule:evenodd;fill:rgb(94.117647%,29.019608%,21.960784%);fill-opacity:1;" d="M 54.253906 32.050781 C 54.984375 32.050781 56.085938 33.808594 56.332031 34.132812 C 56.800781 34.761719 57 35.636719 57.097656 36.488281 C 57.765625 37.957031 58.148438 39.800781 58.929688 41.246094 L 59.097656 41.246094 C 60.363281 39.019531 60.585938 36.054688 62.160156 33.988281 L 62.371094 33.988281 C 62.734375 34.496094 62.78125 35.136719 62.988281 35.582031 L 62.988281 36.730469 C 62.988281 36.882812 62.746094 37.015625 62.746094 37.167969 L 62.746094 38.542969 C 62.746094 38.695312 62.46875 39.101562 62.398438 39.34375 C 61.253906 43.480469 58.503906 47.144531 56.8125 50.460938 C 56.386719 50.742188 56.171875 51.3125 55.726562 51.675781 C 55.425781 51.925781 55.105469 52.132812 54.652344 52.308594 C 53.804688 52.640625 53.171875 52.808594 52.324219 52.472656 C 51.515625 52.148438 51.082031 51.679688 50.769531 50.863281 C 50.664062 50.578125 50.59375 50.101562 50.59375 50.101562 C 50.59375 49.953125 50.476562 49.90625 50.390625 49.898438 L 50.824219 47.859375 C 50.820312 46.617188 51.585938 45.898438 52.625 45.898438 C 52.851562 45.898438 53.109375 46.429688 53.109375 46.503906 C 53.109375 46.828125 52.746094 46.988281 52.625 46.988281 C 52.476562 46.988281 52.414062 46.867188 52.265625 46.867188 C 51.914062 46.867188 51.542969 48.386719 51.542969 48.476562 L 51.542969 49.367188 C 51.542969 49.988281 51.878906 50.707031 52.554688 51.101562 C 53.050781 51.398438 53.863281 51.34375 54.011719 51.34375 C 55.285156 51.34375 56.210938 49.859375 56.5 48.953125 C 56.835938 48.578125 57.167969 47.984375 57.222656 47.382812 C 57.972656 46.46875 57.71875 44.882812 58.515625 43.972656 C 58.71875 43.746094 58.890625 43.148438 58.890625 42.996094 C 58.890625 42.261719 58.019531 41.894531 57.824219 41.199219 C 57.671875 40.675781 57.507812 40.183594 57.101562 39.753906 C 56.933594 39.171875 56.433594 38.570312 56.136719 37.929688 C 56.128906 37.359375 55.609375 36.757812 55.382812 36.210938 C 55.007812 36.007812 54.617188 35.460938 54.570312 35.023438 C 54.433594 33.6875 53.589844 33.125 53.589844 32.898438 C 53.589844 32.617188 53.996094 32.050781 54.253906 32.050781 "/>
<path style=" stroke:none;fill-rule:evenodd;fill:rgb(94.117647%,29.019608%,21.960784%);fill-opacity:1;" d="M 70.53125 35.996094 C 70.53125 35.472656 69.359375 35.183594 69.113281 35.027344 C 68.480469 35.492188 65.710938 37.347656 65.714844 38.679688 L 65.714844 40.453125 C 65.996094 40.632812 66.171875 40.953125 66.554688 40.953125 C 68.015625 40.953125 70.003906 37.523438 70.40625 36.941406 L 70.40625 36.15625 C 70.460938 36.105469 70.53125 36.144531 70.53125 35.996094 Z M 69.109375 33.695312 L 69.769531 33.695312 C 70.546875 33.695312 70.71875 34.664062 71.253906 34.664062 C 71.464844 34.664062 71.910156 34.246094 71.988281 34.0625 L 72.179688 34.0625 C 72.617188 34.058594 72.820312 34.527344 72.820312 34.84375 C 72.820312 35.011719 71.734375 36.960938 71.734375 37.363281 L 71.734375 38.132812 C 71.734375 38.285156 71.492188 38.421875 71.492188 38.570312 L 71.492188 41.277344 C 71.492188 41.429688 71.734375 41.703125 71.78125 41.925781 L 72.058594 41.925781 C 72.515625 41.921875 73.109375 41.214844 73.316406 40.957031 L 73.53125 40.957031 C 73.597656 41.089844 73.652344 41.203125 73.78125 41.335938 L 73.78125 42.625 C 73.34375 43.425781 72.789062 44.339844 71.796875 44.339844 C 71.644531 44.339844 71.726562 44.21875 71.578125 44.21875 L 70.667969 44.21875 C 70.257812 43.703125 69.921875 43.289062 69.464844 42.847656 C 69.460938 42.738281 69.203125 41.195312 68.722656 41.195312 C 67.894531 41.195312 67.195312 42.386719 66.777344 42.886719 L 65.851562 42.886719 C 65.1875 42.320312 63.179688 41.4375 63.179688 40.105469 C 63.179688 38.125 66.0625 34.71875 67.191406 34.195312 C 67.84375 34.03125 68.488281 33.894531 69.109375 33.695312 "/>
<path style=" stroke:none;fill-rule:evenodd;fill:rgb(94.117647%,29.019608%,21.960784%);fill-opacity:1;" d="M 50.148438 35.027344 C 49.222656 35.027344 46.65625 37.4375 46.65625 38.558594 C 46.65625 38.558594 46.136719 39.984375 46.65625 40.574219 C 46.929688 40.882812 47.359375 40.902344 47.585938 41.074219 C 48.050781 40.773438 48.453125 40.609375 48.9375 40.214844 C 50.421875 39.003906 51.351562 37.96875 51.351562 35.933594 C 51.351562 35.78125 51.113281 35.601562 51.105469 35.398438 C 50.757812 35.390625 50.4375 35.027344 50.148438 35.027344 Z M 49.976562 33.695312 L 50.757812 33.695312 C 51.261719 33.695312 51.703125 34.542969 52.238281 34.542969 C 52.71875 34.542969 52.628906 34.539062 52.976562 34.0625 L 53.1875 34.0625 C 53.296875 34.242188 53.683594 34.679688 53.683594 34.90625 C 53.683594 35.15625 52.480469 37.574219 52.480469 37.96875 L 52.480469 38.730469 C 52.480469 38.882812 52.359375 38.6875 52.359375 38.835938 L 52.359375 40.0625 C 52.359375 40.210938 52.480469 41.519531 52.480469 41.519531 C 52.480469 41.710938 52.78125 41.921875 52.902344 41.921875 C 53.878906 41.921875 53.820312 41.074219 54.347656 41.074219 C 54.5 41.074219 54.640625 41.203125 54.765625 41.335938 C 54.769531 41.40625 54.648438 41.347656 54.648438 41.5 L 54.648438 42.730469 C 54.648438 43.710938 53.367188 44.339844 52.601562 44.339844 C 52.449219 44.339844 52.488281 44.269531 52.4375 44.21875 L 51.660156 44.21875 C 50.355469 43.773438 50.515625 42.070312 49.789062 41.195312 C 48.804688 41.234375 48.695312 42.730469 47.640625 42.886719 C 47.332031 42.933594 47.148438 42.925781 46.835938 42.886719 C 45.441406 42.707031 44.539062 41.570312 44.167969 40.445312 L 44.167969 39.160156 C 44.796875 38.207031 45.488281 37.074219 46.109375 36 C 47.25 35.804688 47.664062 34.785156 48.535156 34.078125 C 48.992188 33.925781 49.492188 33.820312 49.976562 33.695312 "/>
<path style=" stroke:none;fill-rule:evenodd;fill:rgb(94.117647%,29.019608%,21.960784%);fill-opacity:1;" d="M 5.953125 31.726562 C 6.496094 31.832031 4.882812 33.570312 4.863281 34.820312 C 8.433594 37.320312 13.125 32.523438 12.453125 29.214844 C 9.8125 25.226562 5.746094 30.65625 5.953125 31.726562 Z M 6.179688 23.992188 L 6.785156 24.660156 L 6.664062 24.960938 C 6.96875 25.570312 6.496094 26.863281 6.300781 27.5 L 6.464844 27.867188 C 7.488281 27.546875 9.039062 26.210938 9.941406 26.171875 C 12.398438 26.066406 15.457031 28.320312 15.457031 31.007812 C 15.457031 33.675781 10.441406 35.488281 10.15625 36.714844 C 12.066406 38.730469 15.117188 41.453125 16.832031 43.71875 C 17.441406 47.480469 12.636719 42.683594 11.894531 42.140625 C 11.136719 39.542969 6.417969 39.34375 4.375 36.8125 L 4.132812 36.980469 C 4.3125 37.945312 3.585938 38.742188 3.773438 39.671875 L 3.652344 39.777344 C 3.652344 41.554688 2.867188 44.835938 2.320312 46.539062 C 1.957031 46.640625 1.609375 46.820312 1.300781 47.035156 C 0.34375 47.039062 0.480469 45.375 0.277344 44.765625 C 0.285156 44.75 1.484375 38.136719 1.484375 37.441406 L 1.726562 37.035156 C 1.609375 36.539062 2.136719 35.226562 2.085938 35.160156 L 1.84375 35.121094 L 0.761719 35.847656 L 0.289062 35.71875 C -0.195312 32.847656 1.472656 34.164062 1.863281 32.488281 C 3.476562 31.125 4.78125 24.015625 6.179688 23.992188 "/>
<path style=" stroke:none;fill-rule:evenodd;fill:rgb(94.117647%,29.019608%,21.960784%);fill-opacity:1;" d="M 29.144531 36.457031 C 28.429688 36.457031 27.078125 37.84375 26.703125 38.050781 C 26.367188 38.417969 25.472656 40.085938 25.472656 40.875 C 25.472656 41.023438 25.59375 40.925781 25.59375 41.078125 L 25.59375 41.886719 C 25.695312 41.949219 26.261719 42.382812 26.375 42.382812 C 27.316406 42.382812 30.289062 38.914062 30.285156 37.992188 L 30.285156 36.953125 C 30.066406 36.925781 29.476562 36.457031 29.144531 36.457031 Z M 29.265625 35.007812 C 30.59375 35.007812 30.5 35.976562 31.195312 35.976562 C 31.8125 35.976562 31.578125 35.492188 32.097656 35.492188 C 32.375 35.492188 32.699219 35.914062 32.699219 36.09375 C 32.699219 36.964844 31.375 38.539062 31.375 39.640625 L 31.375 42.589844 C 31.375 43.003906 31.539062 43.230469 31.855469 43.230469 C 32.746094 43.230469 32.691406 42.382812 33.300781 42.382812 C 33.453125 42.382812 33.527344 42.449219 33.660156 42.519531 L 33.660156 44.058594 C 33.066406 44.660156 32.671875 45.710938 31.675781 45.710938 C 31.523438 45.710938 31.464844 45.589844 31.3125 45.589844 C 31.164062 45.589844 31.164062 45.710938 31.011719 45.710938 C 29.191406 45.710938 29.226562 42.507812 28.664062 42.507812 C 28.039062 42.507812 27.65625 43.980469 26.660156 44.195312 C 26.214844 44.292969 25.9375 44.289062 25.492188 44.195312 C 23.839844 43.851562 23.390625 41.804688 23.390625 40.398438 C 23.390625 40.066406 23.929688 39.113281 24.007812 38.953125 C 24.863281 37.171875 26.976562 35.007812 29.265625 35.007812 "/>
<path style=" stroke:none;fill-rule:evenodd;fill:rgb(94.117647%,29.019608%,21.960784%);fill-opacity:1;" d="M 21 35.148438 L 19.152344 36.511719 C 17.242188 39.710938 19.871094 41.550781 22.867188 36.746094 L 22.601562 35.78125 Z M 23.703125 34.554688 L 24.074219 36.476562 L 19.894531 41.195312 L 19.851562 42 L 21.703125 43.492188 L 23.699219 43.496094 C 23.960938 43.617188 24.195312 44.042969 24.066406 44.324219 L 21.484375 45.308594 L 19.046875 44.679688 C 17.605469 42.667969 16.144531 40.632812 14.3125 38.957031 C 14.265625 38.59375 14.855469 37.242188 15.390625 37.8125 L 16.273438 39.507812 L 16.5625 39.507812 C 17.492188 35.882812 19.46875 32.019531 23.703125 34.554688 "/>
<path style=" stroke:none;fill-rule:evenodd;fill:rgb(18.039216%,29.019608%,56.078431%);fill-opacity:1;" d="M 18.414062 54.027344 L 17.460938 54.027344 L 17.460938 57.28125 C 17.460938 57.632812 17.425781 57.953125 16.929688 57.953125 C 16.421875 57.953125 16.367188 57.601562 16.367188 56.878906 L 15.480469 56.878906 C 15.480469 57.753906 15.480469 58.722656 17 58.722656 C 17.914062 58.722656 18.414062 58.25 18.414062 57.28125 Z M 18.414062 54.027344 "/>
<path style=" stroke:none;fill-rule:evenodd;fill:rgb(18.039216%,29.019608%,56.078431%);fill-opacity:1;" d="M 26.425781 56.910156 C 26.425781 55.6875 25.605469 55.125 24.695312 55.125 C 23.789062 55.125 22.96875 55.6875 22.96875 56.910156 C 22.96875 58.136719 23.789062 58.699219 24.695312 58.699219 C 25.605469 58.699219 26.425781 58.136719 26.425781 56.910156 Z M 25.511719 56.910156 C 25.511719 57.34375 25.382812 57.945312 24.695312 57.945312 C 24.011719 57.945312 23.882812 57.34375 23.882812 56.910156 C 23.882812 56.476562 24.011719 55.875 24.695312 55.875 C 25.382812 55.875 25.511719 56.476562 25.511719 56.910156 "/>
<path style=" stroke:none;fill-rule:evenodd;fill:rgb(18.039216%,29.019608%,56.078431%);fill-opacity:1;" d="M 33.273438 56.9375 C 33.273438 57.339844 33.113281 57.964844 32.539062 57.964844 C 31.976562 57.964844 31.753906 57.492188 31.753906 56.988281 C 31.753906 56.445312 31.90625 55.898438 32.515625 55.898438 C 33.082031 55.898438 33.273438 56.398438 33.273438 56.9375 Z M 31.789062 54.027344 L 30.898438 54.027344 L 30.898438 58.609375 L 31.773438 58.609375 L 31.773438 58.179688 L 31.785156 58.179688 C 32 58.5625 32.394531 58.699219 32.765625 58.699219 C 33.765625 58.699219 34.1875 57.804688 34.1875 56.875 C 34.1875 55.699219 33.527344 55.125 32.78125 55.125 C 32.210938 55.125 31.945312 55.4375 31.804688 55.652344 L 31.789062 55.652344 Z M 31.789062 54.027344 "/>
<path style=" stroke:none;fill-rule:evenodd;fill:rgb(18.039216%,29.019608%,56.078431%);fill-opacity:1;" d="M 41.609375 55.210938 L 40.71875 55.210938 L 40.71875 57.171875 C 40.71875 57.78125 40.328125 57.945312 40.035156 57.945312 C 39.761719 57.945312 39.457031 57.84375 39.457031 57.320312 L 39.457031 55.210938 L 38.566406 55.210938 L 38.566406 57.445312 C 38.566406 58.316406 39.046875 58.699219 39.714844 58.699219 C 40.1875 58.699219 40.542969 58.492188 40.746094 58.128906 L 40.757812 58.128906 L 40.757812 58.609375 L 41.609375 58.609375 Z M 41.609375 55.210938 "/>
<path style=" stroke:none;fill-rule:evenodd;fill:rgb(18.039216%,29.019608%,56.078431%);fill-opacity:1;" d="M 46.3125 58.609375 L 47.203125 58.609375 L 47.203125 56.839844 C 47.203125 56.464844 47.332031 56.03125 48.023438 56.03125 C 48.105469 56.03125 48.203125 56.03125 48.277344 56.042969 L 48.277344 55.136719 C 48.21875 55.128906 48.164062 55.125 48.105469 55.125 C 47.566406 55.125 47.363281 55.457031 47.179688 55.800781 L 47.164062 55.800781 L 47.164062 55.210938 L 46.3125 55.210938 Z M 46.3125 58.609375 "/>
<path style=" stroke:none;fill-rule:evenodd;fill:rgb(18.039216%,29.019608%,56.078431%);fill-opacity:1;" d="M 54.824219 55.210938 L 54.824219 55.71875 L 54.8125 55.71875 C 54.703125 55.492188 54.449219 55.125 53.820312 55.125 C 53.078125 55.125 52.414062 55.699219 52.414062 56.875 C 52.414062 58.0625 53.058594 58.628906 53.871094 58.628906 C 54.40625 58.628906 54.628906 58.378906 54.773438 58.117188 L 54.785156 58.128906 L 54.785156 58.539062 C 54.785156 59.085938 54.558594 59.316406 54.082031 59.316406 C 53.566406 59.316406 53.496094 59.144531 53.457031 58.972656 L 52.492188 58.972656 C 52.53125 59.695312 53.265625 59.992188 53.96875 59.992188 C 55.632812 59.992188 55.675781 59.015625 55.675781 58.429688 L 55.675781 55.210938 Z M 53.332031 56.929688 C 53.332031 56.140625 53.699219 55.898438 54.03125 55.898438 C 54.527344 55.898438 54.792969 56.34375 54.792969 56.890625 C 54.792969 57.359375 54.640625 57.875 54.035156 57.875 C 53.507812 57.875 53.332031 57.363281 53.332031 56.929688 "/>
<path style=" stroke:none;fill-rule:evenodd;fill:rgb(100%,100%,100%);fill-opacity:1;" d="M 42.035156 2.664062 C 42.101562 3.15625 42.132812 3.460938 42.070312 3.929688 C 42.0625 3.980469 41.992188 4.234375 42.027344 4.242188 C 41.882812 4.632812 41.773438 4.980469 41.777344 5.359375 C 41.738281 5.332031 41.722656 5.335938 41.703125 5.332031 L 41.65625 5.359375 C 41.675781 5.398438 41.699219 5.429688 41.691406 5.484375 C 41.65625 5.742188 41.390625 5.664062 41.347656 5.984375 C 41.339844 6.039062 41.394531 6.003906 41.390625 6.054688 C 41.351562 6.34375 41.082031 6.609375 41.015625 6.945312 C 40.933594 6.9375 40.890625 6.996094 40.816406 7.023438 C 40.832031 7.085938 40.820312 7.132812 40.8125 7.1875 C 40.804688 7.238281 40.355469 7.871094 40.390625 7.882812 C 40.125 8.210938 39.84375 8.429688 39.542969 8.734375 C 39.511719 8.730469 39.464844 8.703125 39.445312 8.699219 C 39.332031 8.929688 38.796875 9.355469 38.457031 9.4375 L 38.414062 9.386719 C 38.398438 9.40625 38.371094 9.4375 38.359375 9.488281 L 38.269531 9.476562 C 38.269531 9.445312 38.226562 9.394531 38.257812 9.359375 L 38.21875 9.320312 C 38.0625 9.355469 37.949219 9.59375 37.933594 9.695312 C 37.875 9.734375 37.773438 9.769531 37.710938 9.765625 C 37.648438 9.757812 37.703125 9.738281 37.691406 9.71875 C 37.652344 9.75 37.609375 9.765625 37.613281 9.8125 C 37.578125 9.8125 37.574219 9.835938 37.511719 9.828125 C 37.449219 9.820312 37.460938 9.757812 37.433594 9.753906 C 37.410156 9.75 37.363281 9.785156 37.339844 9.800781 C 37.335938 9.820312 37.371094 9.855469 37.40625 9.867188 C 37.058594 9.953125 36.746094 10.019531 36.449219 10.09375 C 36.445312 10.0625 35.984375 10.21875 35.921875 10.210938 C 35.859375 10.203125 35.890625 10.164062 35.828125 10.15625 C 35.710938 10.144531 32.816406 10.566406 32.113281 10.8125 C 32.140625 10.78125 32.015625 10.9375 31.855469 10.917969 C 31.792969 10.914062 31.8125 10.871094 31.792969 10.867188 C 31.664062 11.039062 31.199219 11.136719 30.953125 11.292969 L 30.839844 11.277344 C 30.84375 11.226562 30.875 11.183594 30.90625 11.148438 C 30.90625 11.148438 30.929688 11.140625 30.867188 11.132812 C 30.75 11.117188 30.6875 11.257812 30.699219 11.328125 C 30.699219 11.328125 30.691406 11.304688 30.625 11.277344 C 30.605469 11.292969 30.585938 11.261719 30.578125 11.316406 C 30.574219 11.371094 30.625 11.367188 30.617188 11.417969 C 30.617188 11.425781 29.8125 11.878906 29.613281 12.09375 C 29.582031 12.09375 29.535156 12.066406 29.515625 12.0625 C 29.433594 12.15625 29.488281 12.136719 29.484375 12.179688 C 29.476562 12.238281 28.894531 12.980469 28.671875 13.25 C 28.773438 12.875 28.761719 12.917969 28.867188 12.632812 C 29.210938 11.710938 29.742188 11.175781 29.78125 11.136719 C 30.03125 10.902344 30.964844 10.277344 31.125 10.164062 C 31.132812 10.195312 31.148438 10.210938 31.160156 10.230469 C 31.351562 9.945312 31.957031 9.796875 32.308594 9.625 C 32.3125 9.65625 32.625 9.363281 32.917969 9.539062 C 32.9375 9.523438 32.929688 9.554688 32.9375 9.5 C 32.945312 9.445312 32.894531 9.441406 32.902344 9.414062 C 33.132812 9.375 34.636719 9.019531 34.855469 9.046875 L 34.96875 9.058594 C 35.058594 8.9375 35.4375 8.875 35.480469 8.878906 C 35.542969 8.886719 35.570312 8.953125 35.613281 8.960938 C 35.6875 8.703125 37.085938 8.4375 37.484375 8.3125 C 37.484375 8.3125 39.488281 7.039062 39.625 6.875 C 39.625 6.875 40.375 6.296875 40.410156 6.007812 C 40.429688 5.875 40.898438 5.507812 40.933594 5.488281 C 40.9375 5.472656 40.898438 5.457031 40.863281 5.445312 C 40.875 5.421875 40.949219 5.363281 40.957031 5.3125 C 40.964844 5.257812 40.910156 5.273438 40.917969 5.21875 C 40.925781 5.164062 41.109375 5.027344 41.175781 4.910156 C 41.273438 4.734375 41.292969 4.527344 41.367188 4.34375 C 41.398438 4.257812 41.5625 4.140625 41.570312 4.089844 C 41.578125 4.035156 41.5 4.070312 41.503906 4.015625 C 41.511719 3.976562 41.699219 3.335938 41.835938 3.246094 C 41.835938 3.207031 41.765625 3.175781 41.773438 3.125 C 41.78125 3.070312 41.875 2.941406 41.878906 2.886719 L 41.9375 2.453125 C 41.921875 2.695312 41.972656 2.679688 42.035156 2.664062 "/>
<path style=" stroke:none;fill-rule:evenodd;fill:rgb(100%,100%,100%);fill-opacity:1;" d="M 36.15625 3.59375 C 36.21875 3.59375 36.257812 3.574219 36.496094 3.632812 C 36.804688 3.703125 37.203125 3.808594 37.464844 4.007812 C 37.25 3.980469 36.703125 3.832031 36.21875 3.882812 C 35.867188 3.921875 35.484375 4.070312 35.347656 4.113281 C 35.25 4.144531 35.101562 4.265625 35.035156 4.25 C 35.015625 4.265625 34.992188 4.300781 34.980469 4.355469 L 34.929688 4.308594 C 34.910156 4.328125 34.890625 4.328125 34.828125 4.328125 C 34.714844 4.320312 34.628906 4.554688 34.59375 4.558594 C 34.570312 4.578125 34.570312 4.605469 34.597656 4.636719 C 34.433594 4.773438 34.070312 5.539062 34.066406 5.625 C 34.058594 5.800781 34.148438 5.945312 34.140625 6.105469 C 34.140625 6.160156 34.359375 6.679688 34.34375 6.980469 C 34.367188 7 34.40625 7 34.464844 7.003906 C 34.566406 7.316406 35.027344 7.71875 35.445312 7.761719 C 35.71875 7.789062 35.753906 7.800781 35.816406 7.804688 C 36.117188 7.820312 36.898438 7.5 36.921875 7.136719 C 36.921875 7.078125 37.148438 6.582031 37.152344 6.527344 L 37.179688 6.082031 C 37.03125 5.5 36.773438 5.09375 36.140625 5.058594 C 35.886719 5.046875 35.359375 5.347656 35.347656 5.609375 C 35.34375 5.664062 35.257812 5.882812 35.253906 5.9375 C 35.230469 6.363281 35.546875 6.867188 36.210938 6.761719 C 36.078125 6.8125 35.882812 6.851562 35.820312 6.847656 C 35.183594 6.8125 35.136719 6.675781 34.722656 6.175781 C 34.632812 5.925781 34.644531 5.605469 34.648438 5.574219 C 34.671875 5.148438 35 4.796875 35.363281 4.621094 L 35.414062 4.667969 C 35.519531 4.597656 35.910156 4.449219 36.097656 4.457031 C 36.160156 4.460938 36.222656 4.507812 36.285156 4.511719 C 36.347656 4.515625 36.3125 4.46875 36.375 4.46875 C 36.683594 4.484375 37.332031 4.652344 37.636719 5.085938 C 37.742188 5.234375 37.773438 5.507812 37.832031 5.503906 C 37.828125 5.625 37.898438 5.757812 37.914062 5.871094 C 37.878906 6.070312 37.886719 6.195312 37.921875 6.199219 C 37.894531 6.253906 37.820312 6.269531 37.816406 6.324219 C 37.8125 6.378906 37.882812 6.460938 37.882812 6.515625 C 37.878906 6.585938 37.535156 7.328125 37.445312 7.40625 C 37.34375 7.488281 37.210938 7.664062 37.085938 7.5625 C 37.085938 7.5625 37.046875 7.53125 37.046875 7.585938 C 37.042969 7.640625 37.09375 7.632812 37.089844 7.660156 C 36.632812 7.984375 36.144531 8.085938 35.628906 8.0625 C 35.21875 8.039062 33.628906 7.527344 33.757812 7.027344 C 33.757812 7.027344 33.730469 7 33.648438 7.003906 C 33.570312 6.890625 33.570312 6.679688 33.4375 6.652344 C 33.4375 6.652344 33.328125 6.054688 33.296875 6.046875 L 33.320312 5.546875 C 33.355469 5.542969 33.390625 5.546875 33.40625 5.570312 C 33.421875 5.550781 33.441406 5.582031 33.445312 5.523438 C 33.449219 5.46875 33.375 5.421875 33.378906 5.367188 C 33.382812 5.3125 33.507812 5.09375 33.5625 5.046875 C 33.9375 4.09375 35.234375 3.546875 36.15625 3.59375 "/>
<path style=" stroke:none;fill-rule:evenodd;fill:rgb(100%,100%,100%);fill-opacity:1;" d="M 38.679688 9.726562 L 38.765625 9.730469 C 38.765625 9.761719 38.789062 9.78125 38.785156 9.835938 C 38.78125 9.890625 38.679688 9.917969 38.679688 9.972656 C 38.671875 10.058594 38.71875 10.0625 38.808594 10.128906 C 38.851562 10.300781 38.914062 10.71875 38.898438 10.953125 C 38.894531 11.03125 39.042969 11.539062 39.023438 11.867188 C 39.023438 11.921875 39.15625 12.210938 39.152344 12.265625 C 39.148438 12.316406 39.097656 12.324219 39.09375 12.378906 C 39.082031 12.609375 39.289062 12.925781 39.28125 13.125 C 39.277344 13.175781 39.226562 13.207031 39.222656 13.261719 C 39.21875 13.3125 39.273438 13.285156 39.269531 13.335938 C 39.265625 13.390625 39.210938 13.433594 39.203125 13.484375 C 39.164062 13.460938 39.265625 13.640625 39.292969 13.640625 C 39.34375 13.671875 39.414062 13.894531 39.410156 13.917969 C 39.40625 13.972656 39.40625 13.945312 39.371094 13.96875 L 39.320312 13.921875 C 39.304688 13.941406 39.285156 13.921875 39.28125 13.976562 C 39.28125 14.03125 39.394531 14.207031 39.390625 14.261719 C 39.375 14.585938 39.542969 15.082031 39.59375 15.449219 C 39.554688 15.421875 39.542969 15.382812 39.523438 15.378906 C 39.5 15.398438 39.503906 15.414062 39.5 15.464844 C 39.496094 15.519531 39.617188 15.648438 39.613281 15.703125 L 39.597656 15.976562 C 39.59375 16.03125 39.707031 16.261719 39.722656 16.421875 L 39.671875 16.460938 C 39.691406 16.542969 39.730469 16.632812 39.730469 16.71875 C 39.773438 17.914062 39.84375 17.429688 39.78125 18.5625 L 39.6875 20.214844 C 39.683594 20.265625 39.632812 20.265625 39.632812 20.320312 C 39.628906 20.375 40.003906 20.496094 40 20.550781 C 39.992188 20.65625 39.882812 20.632812 39.878906 20.738281 C 39.875 20.792969 40.515625 20.800781 40.515625 20.867188 C 40.488281 21.324219 39.941406 21.636719 39.761719 21.855469 C 39.734375 21.738281 38.765625 21.878906 38.769531 21.824219 C 38.773438 21.773438 38.886719 20.546875 38.898438 20.335938 C 38.902344 20.285156 39.03125 20.199219 39.03125 20.191406 C 39.03125 20.183594 38.75 19.621094 38.71875 18.984375 C 38.542969 18.769531 38.175781 17.652344 38.183594 17.484375 C 38.1875 17.433594 38.242188 17.382812 38.242188 17.34375 C 38.222656 17.324219 38.144531 17.320312 38.144531 17.320312 C 38.109375 17.054688 37.960938 16.546875 37.964844 16.492188 C 37.964844 16.4375 38.023438 16.34375 38.023438 16.289062 C 38.027344 16.21875 37.945312 16.078125 37.816406 16.160156 C 37.703125 15.734375 37.503906 15.363281 37.351562 14.945312 L 37.3125 14.90625 C 36.871094 15.265625 36.324219 17.289062 35.960938 17.671875 C 35.929688 17.671875 35.898438 17.644531 35.882812 17.625 C 35.65625 18.160156 35.40625 19.273438 35.429688 19.269531 L 35.28125 19.492188 C 35.304688 19.4375 35.265625 19.492188 35.253906 19.453125 C 35.015625 19.59375 35.195312 20.371094 34.789062 20.433594 C 34.359375 20.933594 34.152344 22.574219 34.132812 22.554688 C 33.792969 22.683594 32.984375 22.660156 32.683594 22.730469 C 32.679688 22.699219 32.738281 22.453125 32.742188 22.402344 C 32.75 22.277344 33.03125 21.679688 33.347656 21.320312 C 33.382812 21.347656 33.082031 21.246094 32.988281 21.28125 C 33.742188 20.472656 33.109375 19.546875 33.984375 19.007812 C 33.984375 18.992188 34.5625 17.617188 34.566406 17.5625 C 34.578125 17.378906 34.476562 16.832031 34.59375 16.5 C 34.605469 16.460938 34.847656 14.742188 34.90625 14.460938 C 34.976562 14.109375 35.269531 13.878906 35.222656 13.792969 C 35.570312 13.40625 35.578125 12.816406 35.742188 12.324219 C 35.789062 12.300781 35.96875 12.367188 36.015625 12.3125 C 35.996094 12.296875 36.199219 12.171875 36.203125 12.121094 C 36.203125 12.0625 36.789062 11.363281 36.835938 11.40625 C 36.878906 11.40625 36.945312 11.367188 36.949219 11.3125 C 36.953125 11.257812 36.980469 11.179688 37.007812 11.144531 C 37.007812 11.144531 37.035156 11.089844 36.972656 11.085938 C 36.910156 11.085938 36.902344 11.105469 36.835938 11.125 L 36.84375 11.023438 C 36.84375 10.941406 37.113281 10.867188 37.175781 10.84375 L 37.179688 10.789062 C 37.136719 10.769531 37.132812 10.621094 37.296875 10.648438 C 37.316406 10.632812 37.316406 10.601562 37.292969 10.550781 C 37.546875 10.433594 37.730469 10.472656 37.859375 10.300781 C 37.835938 10.285156 37.824219 10.242188 37.789062 10.234375 C 37.929688 10.058594 38.253906 9.980469 38.429688 9.894531 C 38.410156 9.882812 38.394531 9.882812 38.359375 9.875 C 38.46875 9.800781 38.574219 9.742188 38.679688 9.726562 "/>
</g>
</svg>
